<?xml version="1.0" standalone="no"?>
<!DOCTYPE svg PUBLIC "-//W3C//DTD SVG 20010904//EN"
 "http://www.w3.org/TR/2001/REC-SVG-20010904/DTD/svg10.dtd">
<svg version="1.0" xmlns="http://www.w3.org/2000/svg"
 width="288.000000pt" height="288.000000pt" viewBox="0 0 288.000000 288.000000"
 preserveAspectRatio="xMidYMid meet">
<metadata>
Created by potrace 1.11, written by Peter Selinger 2001-2013
</metadata>
<g transform="translate(0.000000,288.000000) scale(0.100000,-0.100000)"
fill="#000000" stroke="none">
<path d="M0 2700 l0 -180 180 0 180 0 0 -180 0 -180 180 0 180 0 0 -180 0
-180 178 -2 177 -3 3 -177 2 -178 -180 0 -180 0 0 -360 0 -360 178 2 177 3 3
357 2 358 175 0 175 0 2 -177 3 -178 178 -3 177 -2 0 -180 0 -180 183 -2 182
-3 3 -177 2 -178 180 0 180 0 0 -180 0 -180 180 0 180 0 0 180 0 180 -180 0
-180 0 0 180 0 180 -180 0 -180 0 -2 177 -3 178 -182 3 -183 2 0 360 0 360
-177 2 -178 3 -3 178 -2 177 -355 0 -355 0 0 180 0 180 178 2 177 3 0 175 0
175 -177 3 -178 2 0 -180 0 -180 -180 0 -180 0 0 180 0 180 -180 0 -180 0 0
-180z"/>
<path d="M2520 1620 l0 -180 180 0 180 0 0 180 0 180 -180 0 -180 0 0 -180z"/>
<path d="M720 180 l0 -180 178 2 177 3 0 175 0 175 -177 3 -178 2 0 -180z"/>
</g>
</svg>
